# xmcd
#
# Track frame offsets:
#	150
#	13059
#	33803
#	46487
#	59938
#	71056
#	86188
#	97524
#	112891
#	125785
#	137893
#	148691
#	161980
#	175267
#	187190
#	200457
#	215025
#	226845
#	237301
#	252408
#	264272
#	273849
#	287756
#	302793
#	318485
#	334732
#	346199
#
# Disc length: 4787 seconds
# Revision: 0
# Processed by: cddbd v1.5.2PL0 Copyright (c) Steve Scherf et al.
# Submitted via: dBpowerAMP V12.0
#
DISCID=a212b11b
DTITLE=Various Artist - Raw Rare and Otherworldly African-American Gospel (1944-2007) [Disc 1 of 3]
DYEAR=2009
DGENRE=Gospel
TTITLE0=Rev. Lonnie Farris - Peace In The Valley
TTITLE1=Elder Beck - Rock And Roll Sermon
TTITLE2=Rev. Anderson Johnson - If I Could Hear My Mother Pray Again
TTITLE3=The Phillips' Specials - I'm A Soldier
TTITLE4=Sister Ola Mae Terrell - How Long
TTITLE5=Elder Roma Wilson and Family - Better Get Ready
TTITLE6=Rev. Robert Ballinger - So Glad
TTITLE7=Madison County Senior Center Singers - Wasn't That A Mystery
TTITLE8=Precious Bryant - When The Saints Go Marching In
TTITLE9=Rev. Roger L. Worthy and his sister Bonnie Woodstock - Get Back Satan
TTITLE10=Amazing Farmer Singers Of Chicago - I Got A Telephone In My Bosom
TTITLE11=Rev. Steward and Family - I Made A Vow To The Lord
TTITLE12=Two Gospel Keys - You've Got To Move (When The Lord Gets Ready)
TTITLE13=Snooks Eaglin - Down By The Riverside
TTITLE14=Sister Mathews - Stand By Me
TTITLE15=Nathaniel Rivers - The Wicked Shall Cease From Troubling
TTITLE16=Laura Rivers - That's Alright (Since My Soul Has Got A Seat Up In The Kingdom)
TTITLE17=Georgia Fife and Drum Band - Why Sorrow Done Passed Me Around
TTITLE18=Mississippi Nightingales - Don't Let Him Ride
TTITLE19=Elder and Sister Brinson and The Brinson Brothers - He's Coming Back
TTITLE20=Holmes Sisters - By His Word
TTITLE21=Lucille Barbee - Where Could I Go
TTITLE22=George Shields and His Gospel Singers - Stand By Me
TTITLE23=Singing Son Of Zion [Brother Shelby Bransford, Jr.] - I'll Never Turn Back
TTITLE24=Isaiah Owens - You Without Sin Cast The First Stone
TTITLE25=Henry Green - Storm Thru Mississippi
TTITLE26=Brother Willie Blue - I'm Pressing On
EXTD=
EXTT0=
EXTT1=
EXTT2=
EXTT3=
EXTT4=
EXTT5=
EXTT6=
EXTT7=
EXTT8=
EXTT9=
EXTT10=
EXTT11=
EXTT12=
EXTT13=
EXTT14=
EXTT15=
EXTT16=
EXTT17=
EXTT18=
EXTT19=
EXTT20=
EXTT21=
EXTT22=
EXTT23=
EXTT24=
EXTT25=
EXTT26=
PLAYORDER=
